<svg xmlns="http://www.w3.org/2000/svg" xmlns:xlink="http://www.w3.org/1999/xlink" version="1.1" x="0px" y="0px" viewBox="0 0 32 32" enable-background="new 0 0 32 32" xml:space="preserve" fill="#F5F5F5"><path d="M31.983,31.082C31.986,31.054,32,31.029,32,31c0-0.001,0-0.002,0-0.002c-0.001-0.054-0.023-0.107-0.033-0.161  c-0.013-0.078-0.018-0.159-0.048-0.23l0,0l-3-7c-0.001-0.002-0.003-0.003-0.004-0.006c1.002-1.691,1.671-3.597,1.94-5.63  C30.904,17.979,30.948,18,31,18c0.553,0,1-0.447,1-1v-2c0-0.552-0.447-1-1-1c-0.052,0-0.096,0.022-0.145,0.029  c-0.347-2.619-1.369-5.021-2.889-7.036C27.979,6.994,27.988,7,28,7c0.256,0,0.512-0.098,0.707-0.293  c0.391-0.391,0.391-1.023,0-1.414l-1-1c-0.391-0.391-1.023-0.391-1.414,0c-0.162,0.163-0.241,0.369-0.269,0.581  C23.364,2.475,19.855,1,16,1S8.635,2.475,5.976,4.874C5.948,4.662,5.87,4.456,5.707,4.293c-0.391-0.391-1.023-0.391-1.414,0l-1,1  c-0.391,0.391-0.391,1.023,0,1.414C3.488,6.902,3.744,7,4,7c0.011,0,0.022-0.006,0.033-0.006c-1.52,2.014-2.542,4.417-2.888,7.036  C1.096,14.022,1.051,14,1,14c-0.552,0-1,0.448-1,1v2c0,0.553,0.448,1,1,1c0.051,0,0.096-0.021,0.145-0.029  c0.269,2.033,0.939,3.938,1.94,5.63c-0.001,0.002-0.003,0.004-0.004,0.006l-3,7c0,0,0,0,0,0.001  c-0.029,0.068-0.033,0.146-0.047,0.223C0.024,30.886,0,30.941,0,30.998c0,0,0,0.001,0,0.002c0,0.027,0.014,0.051,0.016,0.078  c0.009,0.104,0.022,0.206,0.061,0.301c0.027,0.064,0.073,0.116,0.112,0.173c0.033,0.05,0.057,0.104,0.099,0.146  c0.078,0.08,0.174,0.181,0.275,0.231C0.579,31.938,0.589,32,0.606,32c0,0,0.001,0,0.001,0c0.113,0,0.238,0.033,0.368,0.035  c0.008,0,0.016-0.015,0.024-0.015c0,0,0-0.011,0-0.011V32h1c0.552,0,1-0.447,1-1c0-0.383-0.223-0.705-0.539-0.873l1.356-3.164  C3.879,26.975,3.938,27,4,27c0.26,0,0.52-0.11,0.71-0.29c0.148-0.157,0.232-0.364,0.263-0.577c2.096,2.273,4.883,3.895,8.027,4.536  V31c0,0.553,0.448,1,1,1h4c0.553,0,1-0.447,1-1v-0.331c3.145-0.642,5.931-2.263,8.026-4.536c0.03,0.217,0.114,0.42,0.264,0.577  C27.479,26.89,27.74,27,28,27c0.062,0,0.121-0.025,0.183-0.037l1.355,3.164C29.223,30.295,29,30.617,29,31c0,0.553,0.447,1,1,1h1  c0.14,0,0.272-0.029,0.393-0.081c0.001,0,0.001,0,0.001,0c0.006-0.003,0.01-0.008,0.016-0.011c0.114-0.052,0.218-0.121,0.305-0.21  c0.038-0.04,0.06-0.091,0.091-0.136c0.043-0.061,0.091-0.115,0.119-0.185C31.962,31.284,31.975,31.184,31.983,31.082z M15,21v-4h2v4  H15z M16,28.118l1,0.5V30h-2v-1.382L16,28.118z M19,28.628V28c0-0.379-0.214-0.725-0.553-0.895L17,26.382V23h1c0.553,0,1-0.447,1-1  v-6c0-0.552-0.447-1-1-1h-4c-0.552,0-1,0.448-1,1v6c0,0.553,0.448,1,1,1h1v3.382l-1.447,0.724C13.214,27.275,13,27.621,13,28v0.628  C7.276,27.269,3,22.134,3,16C3,8.832,8.832,3,16,3c7.168,0,13,5.832,13,13C29,22.134,24.724,27.269,19,28.628z"></path></svg>