<svg xmlns="http://www.w3.org/2000/svg" xmlns:xlink="http://www.w3.org/1999/xlink" version="1.1" x="0px" y="0px" viewBox="0 0 50 50" enable-background="new 0 0 50 50" xml:space="preserve" fill="#F5F5F5"><path fill="#F5F5F5" d="M35.109,41.324l-0.248-1.17l0.012-0.01l-8.936-10.789h0.02v-1.01h-0.281V18.312h0.281v-1.009h-0.281v-1.915  h0.281v-0.335l0.111,0.072v0.435h0.697v-0.473h-0.002l-0.133-0.085h0.152c0.062,0,0.117-0.053,0.117-0.118s-0.055-0.118-0.117-0.118  h-0.143l0.125-0.085l0,0v-0.473h-0.697v0.434l-0.111,0.076v-0.339h-0.415v-1.529h-0.055c0.281-0.167,0.47-0.473,0.47-0.824  c0-0.429-0.282-0.792-0.671-0.914v-0.302h13.907L27.584,9.05c-0.412-0.403-1.102-0.702-1.922-0.808h0.014V7.74h-0.518l0.083-0.127  h0.435V6.916h-0.473v0.002L25.118,7.05v-0.15c0-0.065-0.054-0.118-0.118-0.118c-0.065,0-0.118,0.053-0.118,0.118v0.141l-0.085-0.125  l0,0h-0.473v0.697h0.435l0.088,0.127h-0.522v0.502h0.013c-0.82,0.106-1.511,0.405-1.922,0.808l-11.608,1.761h13.907v0.302  c-0.389,0.122-0.672,0.485-0.672,0.914c0,0.351,0.189,0.657,0.471,0.824h-0.055v1.529h-0.416v1.008h0.282v1.915h-0.282v0.346  l-0.128-0.083v-0.435h-0.696v0.473h0.003l0.131,0.085H23.2c-0.064,0-0.117,0.053-0.117,0.118s0.053,0.117,0.117,0.117h0.143  l-0.125,0.086l0,0v0.473h0.696v-0.435l0.128-0.087v0.351h0.282v10.034h-0.282v0.348l-0.128-0.084v-0.434h-0.696v0.471h0.003  l0.131,0.086H23.2c-0.064,0-0.117,0.053-0.117,0.117s0.053,0.117,0.117,0.117h0.143l-0.125,0.086l0,0v0.473h0.696v-0.434  l0.128-0.088v0.352h0.097l-8.935,10.789l0.012,0.01l-0.248,1.17l-0.066-0.012l-0.594,1.48v0.426h1.793v-1.693l-0.103-0.018  l0.236-1.123l4.804-5.799l3.004,2.486v0.91h0.855v3.33h-0.214v1.906h0.214h0.286h0.201v-1.906h-0.201v-3.33h0.773v-0.838  l3.086-2.555l4.799,5.795l0.236,1.123l-0.102,0.018v1.693h1.793v-0.426l-0.594-1.48L35.109,41.324z M24.324,36.457l-2.87-2.375  l2.87-3.467V36.457z M25.676,36.529v-6.008l2.951,3.564L25.676,36.529z"></path></svg>