<svg xmlns="http://www.w3.org/2000/svg" xmlns:xlink="http://www.w3.org/1999/xlink" version="1.1" x="0px" y="0px" viewBox="0 0 100 100" enable-background="new 0 0 100 100" xml:space="preserve" fill="#F5F5F5"><path d="M84.397,47.315V5.782c0.544-0.352,0.549-0.71,0.549-1.063c0-0.965,0-1.963-11.02-2.775  c-6.552-0.481-15.249-0.747-24.485-0.747c-9.236,0-17.932,0.265-24.485,0.747c-11.018,0.812-11.018,1.81-11.018,2.775  c0,0.351,0.006,0.707,0.539,1.057v41.54v4.938v9.123c-0.003-0.004-0.01-0.006-0.013-0.012c-0.042,0.146-0.042,0.289-0.042,0.428  c0,0.152,0.001,0.307,0.055,0.464c0.165,0.473,0.86,0.961,3.512,1.427v24.438l-2.573,5.835l-0.02,3.284  c-0.437,0.204-0.745,0.641-0.745,1.154c0,0.704,0.572,1.276,1.277,1.276h1.62c0.705,0,1.278-0.572,1.278-1.276  c0-0.531-0.325-0.986-0.786-1.179l0.043-3.003l2.574-5.851l0.01-24.301c1.26,0.146,2.753,0.288,4.581,0.424  c6.465,0.48,15.057,0.746,24.193,0.746c0.411,0,0.815-0.004,1.224-0.005V86.54l0.395,5.874v3.171  c-0.431,0.206-0.735,0.638-0.735,1.146c0,0.703,0.573,1.278,1.277,1.278h1.62c0.703,0,1.276-0.575,1.276-1.278  c0-0.514-0.309-0.95-0.746-1.154l-0.001-3.113l-0.395-5.888V65.214c7.652-0.064,14.745-0.316,20.277-0.729  c2.025-0.151,3.656-0.31,4.994-0.472v24.189l2.601,5.973v3.023c-0.459,0.195-0.781,0.65-0.781,1.179  c0,0.703,0.572,1.276,1.277,1.276h1.619c0.703,0,1.276-0.573,1.276-1.276c0-0.494-0.289-0.908-0.699-1.124v-3.211l-2.6-5.958V63.607  c2.256-0.434,2.904-0.886,3.074-1.325c0.065-0.166,0.065-0.327,0.065-0.489c0-0.139,0-0.281-0.044-0.425  c-0.004,0.007-0.017,0.013-0.021,0.019v-9.133V47.315z M18.218,98.395c0,0.368-0.299,0.667-0.668,0.667h-1.62  c-0.368,0-0.667-0.299-0.667-0.667c0-0.37,0.3-0.671,0.667-0.671h1.62C17.919,97.724,18.218,98.024,18.218,98.395z M20.075,88.175  l-2.574,5.85l-0.021,3.09h-1.479v-2.972l2.599-5.894V57.087h1.475V88.175z M22.042,54.546c0,1.139-0.525,1.93-0.998,1.93h-3.095  c-0.473,0-0.999-0.791-0.999-1.93v-3.914c0-1.138,0.525-1.931,0.999-1.931h3.095c0.473,0,0.998,0.793,0.998,1.931V54.546z   M18.6,48.093v-21.3h1.475v21.3H18.6z M53.891,96.73c0,0.368-0.299,0.668-0.667,0.668h-1.62c-0.367,0-0.667-0.3-0.667-0.668  c0-0.369,0.3-0.667,0.667-0.667h1.62C53.592,96.063,53.891,96.361,53.891,96.73z M52.751,86.595l0.393,5.889v2.97H51.67l-0.001-3.06  l-0.394-5.873V65.225c0.491-0.001,0.987-0.001,1.476-0.005V86.595z M84.013,98.378c0,0.367-0.3,0.666-0.667,0.666h-1.619  c-0.369,0-0.669-0.299-0.669-0.666c0-0.369,0.3-0.669,0.669-0.669h1.619C83.713,97.709,84.013,98.009,84.013,98.378z M83.313,94.106  v2.992H81.84v-2.986l-2.6-5.973V57.048h1.473v31.101L83.313,94.106z M82.363,54.509c0,1.139-0.525,1.93-0.998,1.93h-3.094  c-0.472,0-0.999-0.791-0.999-1.93v-3.913c0-1.139,0.527-1.931,0.999-1.931h3.094c0.473,0,0.998,0.792,0.998,1.931V54.509z   M79.24,48.056V26.757h1.473v21.298H79.24z M73.882,6.884c-6.53,0.481-15.21,0.746-24.44,0.746s-17.91-0.265-24.439-0.746  C14.548,6.113,14.548,5.171,14.548,4.719c0-0.453,0-1.396,10.454-2.166C31.54,2.071,40.22,1.807,49.442,1.807  c9.221,0,17.902,0.265,24.44,0.746c10.454,0.77,10.454,1.713,10.454,2.166C84.336,5.171,84.336,6.113,73.882,6.884z"></path><path d="M49.441,6.654c-1.315,0-32.205-0.023-32.205-2.045c0-2.021,30.889-2.044,32.205-2.044c1.315,0,32.206,0.023,32.206,2.044  C81.647,6.631,50.756,6.654,49.441,6.654L49.441,6.654z M17.935,4.609c1.523,0.743,14.146,1.509,31.507,1.509  c17.362,0,29.983-0.766,31.508-1.509c-1.522-0.742-14.145-1.508-31.508-1.508C32.079,3.101,19.457,3.867,17.935,4.609L17.935,4.609z  "></path></svg>